<svg width="64" height="64" viewBox="0 0 64 64" fill="none" xmlns="http://www.w3.org/2000/svg">
<g id="train">
<path id="Vector" d="M28.3013 19.3787L19.48 30.4054L30.5066 41.432L24.9946 53.5654M34.6666 16C36.0811 16 37.4377 15.4381 38.4379 14.4379C39.4381 13.4378 40 12.0812 40 10.6667C40 9.25222 39.4381 7.89567 38.4379 6.89547C37.4377 5.89528 36.0811 5.33337 34.6666 5.33337C33.2522 5.33337 31.8956 5.89528 30.8954 6.89547C29.8952 7.89567 29.3333 9.25222 29.3333 10.6667C29.3333 12.0812 29.8952 13.4378 30.8954 14.4379C31.8956 15.4381 33.2522 16 34.6666 16Z" stroke="#2B529B" stroke-width="4" stroke-linecap="round" stroke-linejoin="round"/>
<path id="Vector_2" d="M11.76 22.688L20.792 13.864L28.3014 19.3787L36.0214 28.2H40.6134M18.3787 39.2267L15.0694 41.432H6.24805M8.91471 57.432L49.736 52.0987V21.3333" stroke="#2B529B" stroke-width="4" stroke-linecap="round" stroke-linejoin="round"/>
<path id="Vector_3" d="M55.7122 16L49.7335 21.3333L45.3335 25.3333M55.7095 57.8933L49.7362 52.0987" stroke="#2B529B" stroke-width="4" stroke-linecap="round" stroke-linejoin="round"/>
</g>
</svg>
