<svg width="64" height="64" viewBox="0 0 64 64" fill="none" xmlns="http://www.w3.org/2000/svg">
<g id="Frame">
<path id="Vector" d="M10.6667 50.6667V13.3333C10.6667 11.9188 11.2287 10.5623 12.2288 9.5621C13.229 8.5619 14.5856 8 16.0001 8H51.7334C52.1578 8 52.5647 8.16857 52.8648 8.46863C53.1648 8.76869 53.3334 9.17565 53.3334 9.6V44.5707" stroke="#2B529B" stroke-width="4" stroke-linecap="round"/>
<path id="Vector_2" d="M21.3333 8V29.3333L27.9999 25.0667L34.6666 29.3333V8" stroke="#2B529B" stroke-width="4" stroke-linecap="round" stroke-linejoin="round"/>
<path id="Vector_3" d="M16 45.3334H53.3333M16 56H53.3333" stroke="#2B529B" stroke-width="4" stroke-linecap="round"/>
<path id="Vector_4" d="M16.0001 56C14.5856 56 13.229 55.4381 12.2288 54.4379C11.2287 53.4377 10.6667 52.0812 10.6667 50.6667C10.6667 49.2522 11.2287 47.8957 12.2288 46.8955C13.229 45.8953 14.5856 45.3334 16.0001 45.3334" stroke="#2B529B" stroke-width="4" stroke-linecap="round" stroke-linejoin="round"/>
</g>
</svg>
