<svg width="64" height="64" viewBox="0 0 64 64" fill="none" xmlns="http://www.w3.org/2000/svg">
<g id="Frame">
<path id="Vector" d="M52.0002 58.6666C53.061 58.6666 54.0784 58.2452 54.8286 57.4951C55.5787 56.7449 56.0002 55.7275 56.0002 54.6666C56.0002 53.6058 55.5787 52.5883 54.8286 51.8382C54.0784 51.0881 53.061 50.6666 52.0002 50.6666C50.9393 50.6666 49.9219 51.0881 49.1717 51.8382C48.4216 52.5883 48.0002 53.6058 48.0002 54.6666C48.0002 55.7275 48.4216 56.7449 49.1717 57.4951C49.9219 58.2452 50.9393 58.6666 52.0002 58.6666ZM25.3335 58.6666C26.3944 58.6666 27.4118 58.2452 28.1619 57.4951C28.9121 56.7449 29.3335 55.7275 29.3335 54.6666C29.3335 53.6058 28.9121 52.5883 28.1619 51.8382C27.4118 51.0881 26.3944 50.6666 25.3335 50.6666C24.2726 50.6666 23.2552 51.0881 22.5051 51.8382C21.7549 52.5883 21.3335 53.6058 21.3335 54.6666C21.3335 55.7275 21.7549 56.7449 22.5051 57.4951C23.2552 58.2452 24.2726 58.6666 25.3335 58.6666Z" fill="#2B529B" stroke="#2B529B" stroke-width="4" stroke-linecap="round" stroke-linejoin="round"/>
<path id="Vector_2" d="M13.3335 10.6667H58.6668L53.3335 40M13.3335 10.6667L18.6668 40H53.3335M13.3335 10.6667C12.8882 8.88804 10.6668 5.33337 5.3335 5.33337M53.3335 40H13.9468C9.1895 40 6.66683 42.0827 6.66683 45.3334C6.66683 48.584 9.1895 50.6667 13.9468 50.6667H52.0002" stroke="#2B529B" stroke-width="4" stroke-linecap="round" stroke-linejoin="round"/>
</g>
</svg>
