<svg width="64" height="64" viewBox="0 0 64 64" fill="none" xmlns="http://www.w3.org/2000/svg">
<g id="Frame">
<path id="Vector" d="M32 10.6666V21.3333M32 10.6666C17.272 10.6666 5.33328 22.6053 5.33328 37.3333C5.3242 43.1055 7.19652 48.7233 10.6666 53.336H22.6666M32 10.6666C46.728 10.6666 58.6666 22.6053 58.6666 37.3333C58.6666 43.3386 56.6826 48.88 53.3333 53.336L41.3333 53.3333M10.6666 21.3333L17.3333 28M46.6666 28L53.3333 21.3333M7.99995 45.3333H16M32 45.3333L34.6666 29.3333M48 45.3333H56" stroke="#2B529B" stroke-width="4" stroke-linecap="round" stroke-linejoin="round"/>
<path id="Vector_2" d="M32 61.3334C34.1217 61.3334 36.1566 60.4905 37.6569 58.9902C39.1571 57.4899 40 55.4551 40 53.3334C40 51.2116 39.1571 49.1768 37.6569 47.6765C36.1566 46.1762 34.1217 45.3334 32 45.3334C29.8783 45.3334 27.8434 46.1762 26.3431 47.6765C24.8429 49.1768 24 51.2116 24 53.3334C24 55.4551 24.8429 57.4899 26.3431 58.9902C27.8434 60.4905 29.8783 61.3334 32 61.3334Z" stroke="#2B529B" stroke-width="4" stroke-linecap="round" stroke-linejoin="round"/>
</g>
</svg>
