<svg width="40" height="40" viewBox="0 0 40 40" fill="none" xmlns="http://www.w3.org/2000/svg">
<g clip-path="url(#clip0_14_939)">
<path d="M10 38H20ZM10 38V29.6667ZM10 38H1C0.734783 38 0.48043 37.8946 0.292893 37.7071C0.105357 37.5196 0 37.2652 0 37V30.6667C0 30.4015 0.105357 30.1471 0.292893 29.9596C0.48043 29.772 0.734783 29.6667 1 29.6667H10M20 38V18ZM20 38H29C29.2652 38 29.5196 37.8946 29.7071 37.7071C29.8946 37.5196 30 37.2652 30 37V9C30 8.73478 29.8946 8.48043 29.7071 8.29289C29.5196 8.10536 29.2652 8 29 8H21C20.7348 8 20.4804 8.10536 20.2929 8.29289C20.1054 8.48043 20 8.73478 20 9V18M20 18H11C10.7348 18 10.4804 18.1054 10.2929 18.2929C10.1054 18.4804 10 18.7348 10 19V29.6667" fill="#E5B01E"/>
<path d="M10 38H20M10 38V29.6667M10 38H1C0.734783 38 0.48043 37.8946 0.292893 37.7071C0.105357 37.5196 0 37.2652 0 37V30.6667C0 30.4015 0.105357 30.1471 0.292893 29.9596C0.48043 29.772 0.734783 29.6667 1 29.6667H10M20 38V18M20 38H29C29.2652 38 29.5196 37.8946 29.7071 37.7071C29.8946 37.5196 30 37.2652 30 37V9C30 8.73478 29.8946 8.48043 29.7071 8.29289C29.5196 8.10536 29.2652 8 29 8H21C20.7348 8 20.4804 8.10536 20.2929 8.29289C20.1054 8.48043 20 8.73478 20 9V18M10 29.6667V19C10 18.7348 10.1054 18.4804 10.2929 18.2929C10.4804 18.1054 10.7348 18 11 18H20" stroke="#E5B01E" stroke-width="4"/>
<rect x="12" y="21" width="7" height="17" fill="#E5B01E"/>
</g>
<defs>
<clipPath id="clip0_14_939">
<rect width="40" height="40" fill="white"/>
</clipPath>
</defs>
</svg>
