<svg width="50" height="50" viewBox="0 0 50 50" fill="none" xmlns="http://www.w3.org/2000/svg">
<path d="M31.25 10.4165C31.25 6.96472 28.4518 4.1665 25 4.1665C21.5482 4.1665 18.75 6.96472 18.75 10.4165V22.9165C18.75 26.3683 21.5482 29.1665 25 29.1665C28.4518 29.1665 31.25 26.3683 31.25 22.9165V10.4165Z" stroke="#E5B01E" stroke-width="1.5"/>
<path d="M10.4167 20.8335V22.9168C10.4167 26.7846 11.9532 30.4939 14.6881 33.2288C17.423 35.9637 21.1323 37.5002 25.0001 37.5002M25.0001 37.5002C28.8678 37.5002 32.5771 35.9637 35.3121 33.2288C38.047 30.4939 39.5834 26.7846 39.5834 22.9168V20.8335M25.0001 37.5002V45.8335M25.0001 45.8335H18.7501M25.0001 45.8335H31.2501" stroke="#E5B01E" stroke-width="1.5" stroke-linecap="round" stroke-linejoin="round"/>
</svg>
