<svg width="50" height="50" viewBox="0 0 50 50" fill="none" xmlns="http://www.w3.org/2000/svg">
<path d="M6.25 6.24984L43.75 43.7498M18.75 18.7498C18.75 21.5125 19.8475 24.162 21.801 26.1155C23.7545 28.069 26.404 29.1665 29.1667 29.1665M31.25 21.8748V10.4165C31.25 8.7589 30.5915 7.16919 29.4194 5.99709C28.2473 4.82498 26.6576 4.1665 25 4.1665C23.3424 4.1665 21.7527 4.82498 20.5806 5.99709C19.4085 7.16919 18.75 8.7589 18.75 10.4165V11.4582" stroke="#E5B01E" stroke-width="2.275" stroke-linecap="round" stroke-linejoin="round"/>
<path d="M10.4165 20.8335V22.9168C10.4165 26.7846 11.953 30.4939 14.6879 33.2288C17.4228 35.9637 21.1321 37.5002 24.9998 37.5002M24.9998 37.5002C28.8676 37.5002 32.5769 35.9637 35.3118 33.2288C38.0467 30.4939 39.5832 26.7846 39.5832 22.9168V20.8335M24.9998 37.5002V45.8335M24.9998 45.8335H18.7498M24.9998 45.8335H31.2498" stroke="#E5B01E" stroke-width="2.275" stroke-linecap="round" stroke-linejoin="round"/>
</svg>
