<svg width="64" height="64" viewBox="0 0 64 64" fill="none" xmlns="http://www.w3.org/2000/svg">
<g id="Frame">
<path id="Vector" d="M2.66663 40V24C2.66663 19.7565 4.35234 15.6869 7.35292 12.6863C10.3535 9.68571 14.4232 8 18.6666 8H45.3333C49.5768 8 53.6464 9.68571 56.647 12.6863C59.6476 15.6869 61.3333 19.7565 61.3333 24V40C61.3333 44.2435 59.6476 48.3131 56.647 51.3137C53.6464 54.3143 49.5768 56 45.3333 56H18.6666C14.4232 56 10.3535 54.3143 7.35292 51.3137C4.35234 48.3131 2.66663 44.2435 2.66663 40Z" stroke="#E5B01E" stroke-width="4"/>
<path id="Vector_2" d="M18.6666 24C20.7884 24 22.8232 24.8429 24.3235 26.3431C25.8238 27.8434 26.6666 29.8783 26.6666 32C26.6666 34.1217 25.8238 36.1566 24.3235 37.6569C22.8232 39.1571 20.7884 40 18.6666 40C16.5449 40 14.5101 39.1571 13.0098 37.6569C11.5095 36.1566 10.6666 34.1217 10.6666 32C10.6666 29.8783 11.5095 27.8434 13.0098 26.3431C14.5101 24.8429 16.5449 24 18.6666 24Z" stroke="#E5B01E" stroke-width="4"/>
<path id="Vector_3" d="M32 40V24H40M45.3333 40V24H53.3333M32 32H38.8587M45.3333 32H52.192" stroke="#E5B01E" stroke-width="4" stroke-linecap="round" stroke-linejoin="round"/>
</g>
</svg>
