<svg width="40" height="40" viewBox="0 0 40 40" fill="none" xmlns="http://www.w3.org/2000/svg">
<path d="M32.4999 36.6667C33.163 36.6667 33.7988 36.4034 34.2677 35.9345C34.7365 35.4657 34.9999 34.8298 34.9999 34.1667C34.9999 33.5037 34.7365 32.8678 34.2677 32.399C33.7988 31.9301 33.163 31.6667 32.4999 31.6667C31.8369 31.6667 31.201 31.9301 30.7322 32.399C30.2633 32.8678 29.9999 33.5037 29.9999 34.1667C29.9999 34.8298 30.2633 35.4657 30.7322 35.9345C31.201 36.4034 31.8369 36.6667 32.4999 36.6667ZM15.8333 36.6667C16.4963 36.6667 17.1322 36.4034 17.601 35.9345C18.0699 35.4657 18.3333 34.8298 18.3333 34.1667C18.3333 33.5037 18.0699 32.8678 17.601 32.399C17.1322 31.9301 16.4963 31.6667 15.8333 31.6667C15.1702 31.6667 14.5343 31.9301 14.0655 32.399C13.5966 32.8678 13.3333 33.5037 13.3333 34.1667C13.3333 34.8298 13.5966 35.4657 14.0655 35.9345C14.5343 36.4034 15.1702 36.6667 15.8333 36.6667Z" fill="#555555" stroke="#555555" stroke-width="4" stroke-linecap="round" stroke-linejoin="round"/>
<path d="M8.33325 6.66659H36.6666L33.3333 24.9999M8.33325 6.66659L11.6666 24.9999H33.3333M8.33325 6.66659C8.05492 5.55492 6.66659 3.33325 3.33325 3.33325M33.3333 24.9999H8.71659C5.74325 24.9999 4.16659 26.3016 4.16659 28.3333C4.16659 30.3649 5.74325 31.6666 8.71659 31.6666H32.4999" stroke="#555555" stroke-width="4" stroke-linecap="round" stroke-linejoin="round"/>
</svg>
