<svg width="64" height="64" viewBox="0 0 64 64" fill="none" xmlns="http://www.w3.org/2000/svg">
<path d="M51.9999 58.6666C53.0608 58.6666 54.0782 58.2452 54.8283 57.4951C55.5785 56.7449 55.9999 55.7275 55.9999 54.6666C55.9999 53.6058 55.5785 52.5883 54.8283 51.8382C54.0782 51.0881 53.0608 50.6666 51.9999 50.6666C50.9391 50.6666 49.9216 51.0881 49.1715 51.8382C48.4213 52.5883 47.9999 53.6058 47.9999 54.6666C47.9999 55.7275 48.4213 56.7449 49.1715 57.4951C49.9216 58.2452 50.9391 58.6666 51.9999 58.6666ZM25.3333 58.6666C26.3941 58.6666 27.4115 58.2452 28.1617 57.4951C28.9118 56.7449 29.3333 55.7275 29.3333 54.6666C29.3333 53.6058 28.9118 52.5883 28.1617 51.8382C27.4115 51.0881 26.3941 50.6666 25.3333 50.6666C24.2724 50.6666 23.255 51.0881 22.5048 51.8382C21.7547 52.5883 21.3333 53.6058 21.3333 54.6666C21.3333 55.7275 21.7547 56.7449 22.5048 57.4951C23.255 58.2452 24.2724 58.6666 25.3333 58.6666Z" fill="#EAE4D5" stroke="#EAE4D5" stroke-width="4" stroke-linecap="round" stroke-linejoin="round"/>
<path d="M13.3333 10.6667H58.6666L53.3333 40M13.3333 10.6667L18.6666 40H53.3333M13.3333 10.6667C12.8879 8.88804 10.6666 5.33337 5.33325 5.33337M53.3333 40H13.9466C9.18925 40 6.66659 42.0827 6.66659 45.3334C6.66659 48.584 9.18925 50.6667 13.9466 50.6667H51.9999" stroke="#EAE4D5" stroke-width="4" stroke-linecap="round" stroke-linejoin="round"/>
</svg>
